# AST/ASF file generated using VICON BodyLanguage
# -----------------------------------------------
:version 1.10
:name VICON
:units
  mass 1.0
  length 0.45
  angle deg
:documentation
   .ast/.asf automatically generated from VICON data using
   VICON BodyBuilder and BodyLanguage model FoxedUp or BRILLIANT.MOD
:root
   order TX TY TZ RX RY RZ
   axis XYZ
   position 0 0 0  
   orientation 0 0 0 
:bonedata
  begin
     id 1 
     name lhipjoint
     direction 0.54267 -0.795011 0.271047 
     length 2.39899 
     axis 0 0 0  XYZ
  end
  begin
     id 2 
     name lfemur
     direction 0.34202 -0.939693 0  
     length 7.49701  
     axis 0 0 20  XYZ
    dof rx ry rz
    limits (-160.0 20.0)
           (-70.0 70.0)
           (-60.0 70.0)
  end
  begin
     id 3 
     name ltibia
     direction 0.34202 -0.939693 0   
     length 8.1668   
     axis 0 0 20   XYZ
    dof rx
    limits (-10.0 170.0)
  end
  begin
     id 4 
     name lfoot
     direction 0.0736283 -0.202292 0.976554   
     length 2.13544   
     axis -90 7.62852e-016 20   XYZ
    dof rx rz
    limits (-45.0 90.0)
           (-70.0 20.0)
  end
  begin
     id 5 
     name ltoes
     direction 1.53557e-011 -4.22024e-011 1   
     length 1.07411   
     axis -90 7.62852e-016 20   XYZ
    dof rx
    limits (-90.0 20.0)
  end
  begin
     id 6 
     name rhipjoint
     direction -0.538061 -0.797813 0.272002   
     length 2.39057  
     axis 0 0 0  XYZ 
  end
  begin
     id 7 
     name rfemur
     direction -0.34202 -0.939693 0   
     length 7.50152   
     axis 0 0 -20   XYZ
    dof rx ry rz
    limits (-160.0 20.0)
           (-70.0 70.0)
           (-70.0 60.0)
  end
  begin
     id 8 
     name rtibia
     direction -0.34202 -0.939693 0   
     length 8.05793   
     axis 0 0 -20   XYZ
    dof rx
    limits (-10.0 170.0)
 end
 begin
     id 9 
     name rfoot
     direction -0.0765195 -0.210236 0.974652   
     length 2.28698  
     axis -90 -7.62852e-016 -20   XYZ
    dof rx rz
    limits (-45.0 90.0)
           (-20.0 70.0)
  end
  begin
     id 10 
     name rtoes
     direction -1.53542e-011 -4.21847e-011 1   
     length 1.14762   
     axis -90 -7.62852e-016 -20   XYZ
    dof rx
    limits (-90.0 20.0)
  end
  begin
     id 11 
     name lowerback
     direction -0.0217239 0.996592 -0.0795765   
     length 2.08176   
     axis 0 0 0   XYZ
    dof rx ry rz
    limits (-20.0 45.0)
           (-30.0 30.0)
           (-30.0 30.0)
  end
  begin
     id 12 
     name upperback
     direction -0.00563773 0.999651 -0.0258155   
     length 2.08898   
     axis 0 0 0   XYZ
    dof rx ry rz
    limits (-20.0 45.0)
           (-30.0 30.0)
           (-30.0 30.0)
  end
  begin
     id 13 
     name thorax
     direction 0.0032706 0.999923 0.0119599   
     length 2.0968   
     axis 0 0 0   XYZ
    dof rx ry rz
    limits (-20.0 45.0)
           (-30.0 30.0)
           (-30.0 30.0)
  end
  begin
     id 14 
     name lowerneck
     direction -0.0285886 0.99568 0.0883427   
     length 1.81272   
     axis 0 0 0   XYZ
    dof rx ry rz
    limits (-20.0 45.0)
           (-30.0 30.0)
           (-30.0 30.0)
  end
  begin
     id 15 
     name upperneck
     direction 0.0807535 0.97985 -0.18268   
     length 1.82518   
     axis 0 0 0   XYZ
    dof rx ry rz
    limits (-20.0 45.0)
           (-30.0 30.0)
           (-30.0 30.0)
  end
  begin
     id 16
     name head
     direction 0.0236605 0.997053 -0.0729767  
     length 1.84443  
     axis 0 0 0   XYZ
    dof rx ry rz
    limits (-20.0 45.0)
           (-30.0 30.0)
           (-30.0 30.0)
  end
  begin
     id 17 
     name lclavicle
     direction 0.918986 0.39378 -0.0200683  
     length 3.27822  
     axis 0 0 0   XYZ
    dof ry rz
    limits (-20.0 10.0)
           (0.0 20.0)
  end
  begin
     id 18 
     name lhumerus
     direction 1 -4.4897e-011 2.09544e-027   
     length 5.5568   
     axis 180 -30 -90   XYZ
    dof rx ry rz
    limits (-60.0 90.0)
           (-90.0 90.0)
           (-90.0 90.0)
  end
  begin
     id 19
     name lradius
     direction 1 -4.48957e-011 -1.27696e-026   
     length 3.63979   
     axis 180 -30 -90   XYZ
    dof rx
    limits (-10.0 170.0)
  end
  begin
     id 20
     name lwrist
     direction 1 -4.49001e-011 -1.49001e-026   
     length 1.8199   
     axis 9.0955e-015 90 90   XYZ
    dof ry
    limits (-180.0 0.0)
 end
  begin
     id 21 
     name lhand
     direction 1 -4.48709e-011 -2.9758e-026   
     length 0.569419   
     axis 1.90115e-014 90 90   XYZ
    dof rx rz
    limits (-90.0 90.0)
           (-45.0 45.0)
  end
  begin
     id 22 
     name lfingers
     direction 1 -4.49175e-011 -5.96505e-026   
     length 0.45908   
     axis 3.80223e-014 90 90   XYZ
    dof rx
    limits (0.0 90.0)
  end
  begin
     id 23
     name lthumb
     direction 0.707107 -6.34864e-011 0.707107   
     length 0.65915   
     axis -90 45 -3.84942e-014   XYZ
    dof rx rz
    limits (-45.0 45.0)
           (-45.0 45.0)
  end
  begin
     id 24 
     name rclavicle
     direction -0.911913 0.396426 -0.106115   
     length 3.46301  
     axis 0 0 0   XYZ 
    dof ry rz
    limits (-10.0 20.0)
           (-20.0 0.0)
  end
  begin
     id 25 
     name rhumerus
     direction -1 -4.48965e-011 7.78516e-028  
     length 5.34339   
     axis 180 30 90   XYZ
    dof rx ry rz
    limits (-90.0 60.0)
           (-90.0 90.0)
           (-90.0 90.0)
  end
  begin
     id 26 
     name rradius
     direction -1 -4.48948e-011 -5.79823e-027   
     length 3.65101   
     axis 180 30 90   XYZ
    dof rx
    limits (-10.0 170.0)
  end
  begin
     id 27 
     name rwrist
     direction -1 -4.48995e-011 -1.48996e-026   
     length 1.8255   
     axis 9.0955e-015 -90 -90   XYZ
    dof ry
    limits (-180.0 0.0)
  end
  begin
     id 28
     name rhand
     direction -1 -4.48957e-011 -2.97937e-026   
     length 0.694249   
     axis 1.90115e-014 -90 -90   XYZ
    dof rx rz
    limits (-90.0 90.0)
           (-45.0 45.0)
  end
  begin
     id 29
     name rfingers
     direction -1 -4.4898e-011 -5.95943e-026   
     length 0.559721   
     axis 3.80223e-014 -90 -90   XYZ
    dof rx
    limits (0.0 90.0)
  end
  begin
     id 30
     name rthumb
     direction -0.707107 -6.34969e-011 0.707107   
     length 0.803651   
     axis -90 -45 3.84942e-014   XYZ
    dof rx rz
    limits (-45.0 45.0)
           (-45.0 45.0)
  end
:hierarchy
  begin
    root lhipjoint rhipjoint lowerback
    lhipjoint lfemur
    lfemur ltibia
    ltibia lfoot
    lfoot ltoes
    rhipjoint rfemur
    rfemur rtibia
    rtibia rfoot
    rfoot rtoes
    lowerback upperback
    upperback thorax
    thorax lowerneck lclavicle rclavicle
    lowerneck upperneck
    upperneck head
    lclavicle lhumerus
    lhumerus lradius
    lradius lwrist
    lwrist lhand lthumb
    lhand lfingers
    rclavicle rhumerus
    rhumerus rradius
    rradius rwrist
    rwrist rhand rthumb
    rhand rfingers
  end

#!OML:ASF H:\Terrain\Walking\May29\JustinRory\rory.ASF
:FULLY-SPECIFIED
:DEGREES
96
root 13.0052 18.5208 -8.00994 0.52851 -0.388879 -0.644633
lowerback 0.803625 2.45882 -1.17888
upperback 0.847039 3.27556 -1.03333
thorax 0.411725 1.63467 -0.41222
lowerneck -9.07263 -9.6731 -10.6988
upperneck 20.089 -12.6714 5.24767
head 8.80013 -6.30946 2.10902
rclavicle 1.49089e-016 -8.34896e-015
rhumerus -25.6132 15.6993 -80.0526
rradius 82.4446
rwrist -9.53652
rhand -6.6512 25.7441
rfingers 7.12502
rthumb 19.2063 -3.32756
lclavicle 1.49089e-016 -8.34896e-015
lhumerus -50.1331 12.9807 71.9828
lradius 29.7838
lwrist 7.68651
lhand -24.6241 23.0423
lfingers 7.12502
lthumb 1.87465 53.0138
rfemur -1.44936 4.96064 22.3049
rtibia 25.8427
rfoot -12.1739 -4.70481
rtoes 0.741439
lfemur -17.6772 -8.0374 -16.6178
ltibia 24.6097
lfoot -7.49665 3.91315
ltoes 5.2899
97
root 13.0424 18.5284 -7.94506 0.882441 -0.401049 -0.286189
lowerback 0.602833 2.32337 -1.44488
upperback 0.600431 3.09454 -1.29192
thorax 0.27216 1.54465 -0.524869
lowerneck -8.69326 -9.59537 -10.6154
upperneck 19.8835 -12.6264 5.33223
head 8.65647 -6.28516 2.15212
rclavicle -1.4238e-014 -5.56597e-015
rhumerus -27.0336 16.0466 -80.3063
rradius 85.5043
rwrist -8.23921
rhand -7.40911 24.4655
rfingers 7.12502
rthumb 18.4773 -4.67693
lclavicle -1.4238e-014 -5.56597e-015
lhumerus -50.3297 12.8958 71.6843
lradius 29.9174
lwrist 7.15975
lhand -24.387 22.8198
lfingers 7.12502
lthumb 2.1036 52.7892
rfemur -1.95061 4.71317 21.6596
rtibia 26.3774
rfoot -12.253 -4.20897
rtoes 1.5874
lfemur -17.8317 -7.81719 -17.1572
ltibia 24.6426
lfoot -7.58976 3.71056
ltoes 5.48304
98
root 13.0712 18.5343 -7.87773 1.16802 -0.521727 -0.506473
lowerback 0.276088 2.31747 -1.19799
upperback 0.594754 3.09464 -1.2816
thorax 0.461704 1.54504 -0.63703
lowerneck -8.71471 -9.72905 -10.9534
upperneck 19.7731 -12.8099 5.61471
head 8.68284 -6.36916 2.27223
rclavicle -4.4006e-014 3.18055e-015
rhumerus -28.0848 16.3367 -80.0991
rradius 88.5941
rwrist -8.03316
rhand -7.87942 22.784
rfingers 7.12502
rthumb 18.0249 -6.40077
lclavicle -4.4006e-014 3.18055e-015
lhumerus -49.8676 12.0217 72.3395
lradius 30.3736
lwrist 8.22175
lhand -23.8171 24.6504
lfingers 7.12502
lthumb 2.65403 54.6136
rfemur -2.35013 4.94967 21.7617
rtibia 26.9468
rfoot -12.2589 -4.0811
rtoes 2.67385
lfemur -17.8909 -7.63736 -17.0125
ltibia 24.6189
lfoot -7.75794 3.65692
ltoes 5.01817
99
root 13.0959 18.5355 -7.80709 1.17727 -0.654775 -0.499741
lowerback 0.134833 2.21534 -1.32651
upperback 0.746189 2.96459 -1.28723
thorax 0.689345 1.47824 -0.561327
lowerneck -9.18909 -9.86197 -11.0974
upperneck 19.8694 -12.9506 5.72435
head 8.83279 -6.42326 2.28612
rclavicle 2.56929e-014 -1.35174e-014
rhumerus -28.8707 16.6965 -79.9305
rradius 91.646
rwrist -8.15701
rhand -7.11494 21.8059
rfingers 7.12502
rthumb 18.7603 -7.30942
lclavicle 2.56929e-014 -1.35174e-014
lhumerus -49.5947 11.3901 72.8287
lradius 31.3171
lwrist 9.20184
lhand -23.548 27.5251
lfingers 7.12502
lthumb 2.91384 57.485
rfemur -2.41056 5.0969 21.638
rtibia 27.4456
rfoot -12.2037 -3.91957
rtoes 3.12038
lfemur -17.6637 -7.62878 -17.1424
ltibia 24.6782
lfoot -8.02902 3.74875
ltoes 4.55111
100
root 13.1267 18.5279 -7.73642 1.15447 -0.725845 -0.178732
lowerback 0.166204 2.06445 -1.67061
upperback 0.718084 2.76364 -1.4541
thorax 0.635023 1.37651 -0.542874
lowerneck -9.41535 -9.89067 -10.9642
upperneck 20.1192 -12.9633 5.53162
head 8.93766 -6.43225 2.18556
rclavicle 1.9307e-014 -7.95139e-015
rhumerus -29.7146 16.8341 -79.9283
rradius 94.1213
rwrist -6.7647
rhand -6.27061 22.4449
rfingers 7.12502
rthumb 19.5722 -6.58995
lclavicle 1.9307e-014 -7.95139e-015
lhumerus -49.8009 11.2789 72.8686
lradius 32.2356
lwrist 9.7528
lhand -24.4751 31.1633
lfingers 7.12502
lthumb 2.01849 61.1335
rfemur -2.42356 4.92749 21.06
rtibia 27.8941
rfoot -12.0499 -3.37064
rtoes 5.46265
lfemur -17.4044 -7.35474 -17.723
ltibia 24.8035
lfoot -8.21707 3.59906
ltoes 3.40546
101
root 13.1563 18.5255 -7.67251 1.23055 -0.790283 -0.0492499
lowerback 0.277175 1.88277 -1.80087
upperback 0.521428 2.51441 -1.64269
thorax 0.374999 1.25367 -0.672079
lowerneck -9.2999 -9.79461 -10.7311
upperneck 20.3616 -12.8709 5.40112
head 8.96512 -6.38836 2.12249
rclavicle -1.45361e-014 -4.77083e-015
rhumerus -30.6463 16.9862 -80.2311
rradius 96.1332
rwrist -4.9623
rhand -6.38522 22.7017
rfingers 7.12502
rthumb 19.462 -6.34425
lclavicle -1.45361e-014 -4.77083e-015
lhumerus -50.1139 11.6989 72.2635
lradius 31.8774
lwrist 9.26571
lhand -24.4655 25.8891
lfingers 7.12502
lthumb 2.02777 55.8592
rfemur -2.59172 4.80265 20.6985
rtibia 28.3632
rfoot -11.8953 -2.96005
rtoes 6.5751
lfemur -17.3025 -6.99014 -18.0502
ltibia 24.8988
lfoot -8.39957 3.37437
ltoes 3.40036
102
root 13.1833 18.5257 -7.61622 1.33803 -0.90022 -0.155231
lowerback 0.386648 1.77947 -1.72351
upperback 0.336939 2.36914 -1.76196
thorax 0.133123 1.18314 -0.844745
lowerneck -9.26646 -9.80096 -10.6804
upperneck 20.6654 -12.9442 5.53136
head 9.07524 -6.40809 2.146
rclavicle 3.99309e-014 -2.46493e-014
rhumerus -31.7597 17.1324 -80.5407
rradius 98.1194
rwrist -4.389
rhand -6.61904 21.6477
rfingers 7.12502
rthumb 19.2372 -7.42082
lclavicle 3.99309e-014 -2.46493e-014
lhumerus -50.2939 11.2976 72.0123
lradius 32.0871
lwrist 9.25945
lhand -24.541 21.5151
lfingers 7.12502
lthumb 1.95486 51.4859
rfemur -2.86355 4.77513 20.6617
rtibia 28.8437
rfoot -11.7734 -2.89258
rtoes 3.25426
lfemur -17.2584 -6.74919 -18.0462
ltibia 24.973
lfoot -8.59438 3.25124
ltoes 4.20266
103
root 13.2118 18.5138 -7.55521 1.34359 -1.03706 -0.105236
lowerback 0.39542 1.79691 -1.75167
upperback 0.266217 2.39031 -1.93187
thorax 0.0619701 1.19433 -1.00474
lowerneck -9.40115 -10.008 -10.7928
upperneck 21.1778 -13.2843 5.7358
head 9.33169 -6.55116 2.17034
rclavicle -3.28243e-014 -8.74653e-015
rhumerus -32.9696 16.8852 -80.7355
rradius 99.9991
rwrist -4.7555
rhand -6.29985 20.5704
rfingers 7.12502
rthumb 19.5441 -8.4673
lclavicle -3.28243e-014 -8.74653e-015
lhumerus -50.2931 10.2531 72.2647
lradius 32.8733
lwrist 10.1741
lhand -25.732 18.9671
lfingers 7.12502
lthumb 0.804618 48.9454
rfemur -2.96244 4.63137 20.4346
rtibia 29.3478
rfoot -11.7825 -2.72968
rtoes -1.5519
lfemur -17.0703 -6.41604 -18.2789
ltibia 25.0529
lfoot -8.71506 3.09197
ltoes 2.22407
104
root 13.2341 18.5062 -7.4845 1.22432 -1.19736 0.0742711
lowerback 0.233279 1.80001 -2.11924
upperback 0.380143 2.40223 -1.97443
thorax 0.256344 1.19816 -0.83527
lowerneck -9.71733 -10.2322 -11.1202
upperneck 21.7743 -13.5872 5.89951
head 9.66613 -6.69004 2.20663
rclavicle -1.69215e-014 -6.36111e-015
rhumerus -33.7628 16.8581 -80.7361
rradius 101.312
rwrist -5.84506
rhand -5.97953 19.7736
rfingers 7.12502
rthumb 19.852 -9.23248
lclavicle -1.69215e-014 -6.36111e-015
lhumerus -49.8275 9.81392 72.6395
lradius 33.1191
lwrist 10.848
lhand -25.7289 20.6509
lfingers 7.12502
lthumb 0.807614 50.6291
rfemur -2.89666 4.49102 20.0706
rtibia 29.8893
rfoot -11.7876 -2.46288
rtoes -3.8922
lfemur -16.7382 -6.32426 -18.6112
ltibia 25.2175
lfoot -9.0611 3.02257
ltoes 1.4489
